<svg width="328" height="214" viewBox="0 0 328 214" fill="none" xmlns="http://www.w3.org/2000/svg">
<path d="M291.678 64.3153L287.493 84.1531L284.799 81.5808L280.215 84.7822L276.712 80.5236L268.858 86.1133L262.145 75.1265L254.658 79.4194L251.688 75.4133L242.18 80.6563L239.32 74.66L245.985 43.0693L281.715 50.2897L291.678 64.3153Z" fill="#EBEBEB"/>
<path d="M281.717 50.2905L291.679 64.3161L279.285 61.8123L281.717 50.2905Z" fill="#DBDBDB"/>
<path d="M286.6 88.1167L280.464 117.221L232.336 107.497L238.428 78.6279L241.288 84.6199L250.8 79.3769L253.765 83.383L261.257 79.0944L267.965 90.0812L275.824 84.4915L279.323 88.7459L283.911 85.5487L286.6 88.1167Z" fill="#EBEBEB"/>
<path d="M217.717 84.7056L168.67 87.6759L164.773 26.061L201.195 23.8525L214.564 34.8307L217.717 84.7056Z" fill="#EBEBEB"/>
<path d="M201.195 23.8525L214.565 34.8307L201.934 35.5969L201.195 23.8525Z" fill="#DBDBDB"/>
<path d="M187.618 65.313L187.425 63.922C186.931 61.0416 187.736 57.8188 190.294 54.4504C192.603 51.4544 193.854 49.3144 193.714 46.8834C193.557 44.1442 191.698 42.415 188.239 42.552C186.262 42.6525 184.363 43.3391 182.794 44.5208L181.285 41.2124C183.034 39.8214 186.096 38.7942 189.004 38.6444C195.315 38.302 198.385 41.9571 198.625 46.0359C198.835 49.6868 196.902 52.4302 194.445 55.636C192.188 58.5592 191.449 60.9688 191.768 63.6952L191.904 65.0905L187.618 65.313ZM186.839 72.8929C186.726 70.907 188.016 69.4347 189.936 69.332C191.856 69.2292 193.255 70.5475 193.369 72.5377C193.474 74.4166 192.297 75.9317 190.268 76.043C188.331 76.15 186.931 74.7718 186.822 72.8929H186.839Z" fill="#DBDBDB"/>
<path d="M64.9343 54.8311L60.0012 52.644L59.3146 54.1206C59.2132 54.3317 59.055 54.5117 58.857 54.6414C58.659 54.7711 58.4286 54.8455 58.1906 54.8568C57.9195 54.8655 57.6493 54.8912 57.3816 54.9338C57.1466 54.968 56.9065 54.9391 56.687 54.8501C56.4674 54.7612 56.2767 54.6155 56.1352 54.4288L55.1687 53.1063L50.7647 56.1964L51.7312 57.519C51.8656 57.7098 51.9448 57.9328 51.9602 58.1641C51.9756 58.3955 51.9267 58.6266 51.8187 58.8329C51.694 59.0683 51.5816 59.3097 51.4819 59.5562C51.3953 59.7736 51.2498 59.9638 51.061 60.1063C50.8722 60.2488 50.6473 60.3383 50.4105 60.3652L48.7617 60.5235L49.2909 65.8008L50.9484 65.6381C51.1861 65.6195 51.4245 65.6647 51.6379 65.7688C51.8514 65.8728 52.0318 66.0319 52.1598 66.2288C52.2298 66.34 52.3041 66.447 52.3828 66.554C52.4616 66.661 52.5403 66.7638 52.6234 66.8665C52.7743 67.0462 52.8713 67.2633 52.9038 67.4938C52.9362 67.7242 52.9027 67.9589 52.8071 68.1719L52.1161 69.6613L57.0536 71.8527L57.7402 70.3675C57.8425 70.1567 58.0016 69.9771 58.2004 69.8482C58.3992 69.7192 58.6302 69.6457 58.8685 69.6356C59.1365 69.6248 59.4037 69.5991 59.6688 69.5586C59.9038 69.5245 60.1439 69.5534 60.3634 69.6423C60.5829 69.7313 60.7736 69.8769 60.9152 70.0636L61.8817 71.3862L66.29 68.296L65.3235 66.9735C65.185 66.7843 65.1033 66.561 65.0879 66.3287C65.0724 66.0965 65.1237 65.8647 65.2361 65.6595C65.3579 65.4255 65.4674 65.1855 65.5641 64.9405C65.6482 64.7215 65.793 64.5298 65.9823 64.3869C66.1715 64.244 66.3978 64.1556 66.6355 64.1316L68.293 63.9689L67.7595 58.6917L66.102 58.85C65.8658 58.8703 65.6284 58.8263 65.4162 58.7228C65.2039 58.6194 65.025 58.4605 64.8993 58.2637C64.825 58.1524 64.7506 58.0454 64.6719 57.9384C64.5932 57.8314 64.5145 57.7244 64.4314 57.626C64.2815 57.444 64.1851 57.2255 64.1528 56.994C64.1204 56.7624 64.1532 56.5266 64.2477 56.312L64.9343 54.8311ZM62.1354 59.7146C62.6468 60.413 62.9351 61.2442 62.9638 62.103C62.9925 62.9618 62.7603 63.8097 62.2966 64.5393C61.8329 65.269 61.1585 65.8477 60.3587 66.2022C59.559 66.5567 58.6697 66.6712 57.8035 66.5311C56.9372 66.391 56.1329 66.0026 55.4922 65.4151C54.8515 64.8276 54.4032 64.0674 54.204 63.2305C54.0048 62.3937 54.0637 61.5178 54.3732 60.7137C54.6827 59.9096 55.2289 59.2134 55.9427 58.7131C56.8997 58.0424 58.0897 57.7711 59.251 57.959C60.4122 58.1468 61.4498 58.7783 62.1354 59.7146Z" fill="#EBEBEB"/>
<path d="M287.934 124.852L284.645 126.71L285.227 127.694C285.314 127.835 285.357 127.998 285.351 128.163C285.346 128.328 285.292 128.487 285.196 128.623C285.096 128.777 284.999 128.935 284.912 129.102C284.84 129.25 284.727 129.374 284.585 129.461C284.443 129.547 284.279 129.592 284.112 129.59H282.957V133.309H284.12C284.287 133.307 284.452 133.352 284.593 133.439C284.735 133.525 284.849 133.65 284.921 133.797C285.008 133.964 285.104 134.123 285.205 134.277C285.301 134.412 285.355 134.572 285.36 134.737C285.366 134.901 285.322 135.064 285.236 135.205L284.654 136.19L287.943 138.047L288.529 137.059C288.614 136.918 288.737 136.804 288.884 136.728C289.032 136.653 289.198 136.619 289.364 136.631H289.924C290.09 136.619 290.256 136.654 290.403 136.729C290.551 136.805 290.674 136.919 290.759 137.059L291.345 138.052L294.629 136.194L294.048 135.205C293.965 135.063 293.924 134.902 293.931 134.738C293.937 134.575 293.99 134.417 294.083 134.281C294.183 134.127 294.28 133.964 294.367 133.802C294.439 133.654 294.552 133.529 294.694 133.443C294.836 133.357 295 133.312 295.167 133.314H296.331V129.594H295.159C294.992 129.596 294.827 129.551 294.686 129.465C294.544 129.378 294.43 129.254 294.358 129.106C294.271 128.944 294.175 128.781 294.074 128.627C293.981 128.491 293.928 128.333 293.922 128.17C293.916 128.006 293.956 127.845 294.039 127.703L294.621 126.714L291.336 124.856L290.75 125.832C290.665 125.972 290.542 126.087 290.395 126.162C290.247 126.238 290.081 126.272 289.915 126.26H289.635H289.355C289.189 126.271 289.022 126.237 288.874 126.162C288.726 126.086 288.602 125.972 288.516 125.832L287.934 124.852ZM289.635 128.404C290.251 128.404 290.854 128.582 291.367 128.916C291.879 129.251 292.279 129.727 292.515 130.284C292.752 130.841 292.814 131.454 292.694 132.045C292.574 132.637 292.277 133.18 291.841 133.607C291.406 134.033 290.85 134.323 290.246 134.441C289.641 134.558 289.015 134.498 288.446 134.266C287.877 134.035 287.39 133.644 287.049 133.142C286.707 132.64 286.525 132.051 286.526 131.448C286.525 131.048 286.605 130.651 286.761 130.282C286.917 129.912 287.146 129.576 287.435 129.293C287.724 129.01 288.067 128.785 288.444 128.632C288.822 128.479 289.226 128.4 289.635 128.4V128.404Z" fill="#EBEBEB"/>
<path d="M74.9116 39.0165L71.8984 41.2763L72.5938 42.1794C72.6975 42.3081 72.7613 42.4632 72.7776 42.6263C72.7938 42.7894 72.7619 42.9537 72.6856 43.0996C72.6019 43.2662 72.5289 43.4377 72.4669 43.6132C72.413 43.7678 72.3161 43.9045 72.1871 44.0081C72.0581 44.1117 71.902 44.178 71.7366 44.1995L70.582 44.3451L71.0718 48.0301L72.2264 47.8846C72.3945 47.8617 72.5657 47.8857 72.7205 47.9538C72.8752 48.022 73.0071 48.1315 73.1011 48.2698C73.2064 48.4187 73.3203 48.5616 73.4422 48.6978C73.5549 48.8191 73.6296 48.9694 73.6575 49.1311C73.6854 49.2927 73.6653 49.4587 73.5996 49.6095L73.1623 50.6623L76.661 52.0876L77.0983 51.0347C77.1634 50.8837 77.2704 50.7535 77.4072 50.6589C77.544 50.5644 77.7052 50.5092 77.8724 50.4997L78.1523 50.4697L78.4278 50.4269C78.5896 50.3971 78.7567 50.4112 78.911 50.4678C79.0652 50.5244 79.2006 50.6213 79.3025 50.7479L80.0153 51.6596L83.0285 49.3997L82.3244 48.4967C82.2227 48.3662 82.1603 48.2105 82.144 48.0472C82.1278 47.8839 82.1585 47.7194 82.2326 47.5722C82.3155 47.4067 82.3885 47.2366 82.4513 47.0629C82.5052 46.9083 82.6021 46.7715 82.7311 46.6679C82.8601 46.5643 83.0162 46.498 83.1816 46.4765L84.3362 46.331L83.8464 42.6459L82.6918 42.7914C82.5242 42.8148 82.3532 42.7915 82.1985 42.7241C82.0438 42.6567 81.9116 42.548 81.8171 42.4105C81.7078 42.2564 81.5941 42.1109 81.4716 41.9825C81.3698 41.8586 81.3038 41.7102 81.2807 41.5528C81.2577 41.3955 81.2783 41.2349 81.3404 41.088L81.7778 40.0351L78.2791 38.6099L77.8418 39.6627C77.7758 39.8132 77.6686 39.9428 77.532 40.0373C77.3953 40.1317 77.2346 40.1873 77.0677 40.1977L76.7878 40.2234L76.5298 40.232C76.3679 40.2618 76.2008 40.2477 76.0466 40.1911C75.8924 40.1345 75.757 40.0376 75.6551 39.911L74.9116 39.0165ZM77.0677 42.3249C77.6769 42.2483 78.2956 42.3499 78.8459 42.617C79.3961 42.8841 79.8532 43.3047 80.1594 43.8258C80.4657 44.3468 80.6074 44.945 80.5667 45.5447C80.5261 46.1445 80.3048 46.7191 79.9308 47.1959C79.5569 47.6728 79.047 48.0305 78.4655 48.2241C77.884 48.4177 77.2569 48.4384 76.6635 48.2836C76.07 48.1288 75.5366 47.8055 75.1306 47.3544C74.7247 46.9033 74.4644 46.3446 74.3825 45.7489C74.3278 45.3514 74.354 44.9472 74.4596 44.5596C74.5651 44.1719 74.7479 43.8086 74.9975 43.4904C75.247 43.1722 75.5584 42.9054 75.9137 42.7054C76.269 42.5053 76.6612 42.376 77.0677 42.3249Z" fill="#EBEBEB"/>
<path d="M52.4048 135.582C52.5691 131.444 52.5107 127.301 52.2299 123.17C51.6042 114.639 50.2747 106.171 48.2545 97.8494C47.1437 93.1671 45.7792 88.5618 44.3535 83.9608C44.3098 83.8196 44.0824 83.8581 44.1217 84.0036C48.5257 100.225 52.1381 116.96 51.8888 133.823C51.8188 138.531 51.259 143.175 50.8042 147.866C50.8042 147.99 51.001 148.041 51.0316 147.913C51.9369 143.885 52.2343 139.682 52.4048 135.582Z" fill="#EBEBEB"/>
<path d="M44.1217 83.9912C44.1217 83.9912 37.4567 100.555 38.948 104.432C40.4393 108.31 43.5181 109.14 43.5181 109.14C43.5181 109.14 39.4378 114.841 42.2892 120.187C45.1406 125.533 51.4732 125.28 51.9106 131.341C51.8974 131.371 52.2473 106.029 44.1217 83.9912Z" fill="#EBEBEB"/>
<path d="M51.1685 120.906C51.1793 120.879 51.1793 120.848 51.1685 120.821C50.2937 109.512 48.1256 98.336 44.7047 87.5008C44.7047 87.4709 44.6391 87.4794 44.6479 87.5008C45.9686 92.3515 47.1348 97.2221 48.1465 102.113C47.2505 101.282 46.1558 100.685 44.9627 100.375C44.9627 100.375 44.9277 100.401 44.9627 100.409C46.2161 100.859 47.343 101.592 48.2515 102.549C48.4439 103.512 48.6363 104.471 48.8156 105.434C47.3243 103.803 45.2601 102.994 43.1915 102.224C43.1869 102.226 43.1829 102.229 43.1801 102.234C43.1773 102.238 43.1758 102.243 43.1758 102.248C43.1758 102.253 43.1773 102.257 43.1801 102.262C43.1829 102.266 43.1869 102.269 43.1915 102.271C45.3476 103.127 47.4905 104.231 48.9512 106.05C49.4585 108.798 49.9046 111.556 50.2895 114.324C49.2127 113.22 47.8317 112.445 46.3141 112.094C46.266 112.094 46.2397 112.149 46.2879 112.162C47.8468 112.612 49.2387 113.495 50.2938 114.705H50.3201C50.4513 115.675 50.5766 116.649 50.6962 117.628C49.8632 116.938 48.9227 116.383 47.9104 115.984C47.8841 115.984 47.8666 116.014 47.9104 116.023C48.9434 116.461 49.8894 117.074 50.7049 117.833C50.7049 117.833 50.7268 117.833 50.7399 117.833C50.8492 118.762 50.9586 119.691 51.0548 120.619C49.553 118.843 47.6041 117.48 45.4001 116.665C45.3908 116.665 45.3819 116.668 45.3753 116.675C45.3688 116.681 45.3651 116.69 45.3651 116.699C45.3651 116.708 45.3688 116.717 45.3753 116.723C45.3819 116.73 45.3908 116.733 45.4001 116.733C47.5764 117.672 49.4881 119.113 50.9717 120.932C50.988 120.952 51.0101 120.967 51.035 120.974C51.0599 120.982 51.0866 120.982 51.1116 120.975C51.256 122.4 51.3872 123.825 51.4921 125.255C51.4921 125.276 51.5271 125.276 51.5271 125.255C51.4134 123.819 51.2939 122.37 51.1685 120.906Z" fill="white"/>
<path d="M45.8096 98.7441C44.6025 98.0089 43.2236 97.5876 41.8036 97.52C41.7966 97.52 41.79 97.5227 41.785 97.5275C41.7801 97.5324 41.7773 97.5389 41.7773 97.5457C41.7773 97.5525 41.7801 97.559 41.785 97.5639C41.79 97.5687 41.7966 97.5714 41.8036 97.5714C43.1765 97.8262 44.5088 98.2579 45.7658 98.8554C45.8183 98.8682 45.8577 98.7783 45.8096 98.7441Z" fill="white"/>
<path d="M46.6188 116.279C45.6911 115.758 44.6695 115.417 43.6099 115.273C43.5749 115.273 43.5706 115.321 43.6099 115.329C44.6446 115.532 45.6455 115.875 46.5838 116.348C46.6232 116.369 46.6581 116.301 46.6188 116.279Z" fill="white"/>
<path d="M69.93 104.719C67.1104 106.626 64.5209 108.84 62.2111 111.319C59.8289 113.943 57.9915 116.995 56.8012 120.307C54.2682 127.205 52.9061 134.463 52.769 141.792C52.6841 145.851 53.0818 149.906 53.9542 153.875C53.9613 153.904 53.9794 153.929 54.0049 153.945C54.0303 153.961 54.0611 153.967 54.0909 153.961C54.1207 153.956 54.1472 153.939 54.1649 153.915C54.1826 153.891 54.1901 153.861 54.186 153.832C53.1004 146.828 53.1417 139.701 54.3084 132.71C55.4543 125.862 57.2517 118.406 61.7037 112.838C64.1266 109.804 67.1485 107.42 70.1355 104.954C70.293 104.817 70.0918 104.608 69.93 104.719Z" fill="#EBEBEB"/>
<path d="M53.7461 136.853C55.351 134.313 57.2371 131.953 59.3702 129.817C62.707 126.551 65.5147 124.232 65.9521 122.074C66.3894 119.917 62.6108 118.325 62.6108 118.325C62.6108 118.325 67.2247 119.138 68.4886 117.242C69.7525 115.346 70.3604 104.364 70.3604 104.364C70.3604 104.364 61.9636 110.232 58.0495 118.458C54.1353 126.684 53.7461 136.853 53.7461 136.853Z" fill="#EBEBEB"/>
<path d="M67.3471 114.666C66.7942 114.585 66.2337 114.567 65.6765 114.61C65.6109 114.61 65.6153 114.722 65.6765 114.726C66.2275 114.726 66.7829 114.7 67.334 114.726C67.3403 114.724 67.346 114.721 67.3505 114.716C67.355 114.712 67.3581 114.706 67.3595 114.7C67.3608 114.694 67.3604 114.687 67.3582 114.681C67.356 114.675 67.3522 114.67 67.3471 114.666Z" fill="white"/>
<path d="M61.3156 125.318C60.4289 125.336 59.5524 125.507 58.7266 125.823C58.7266 125.823 58.7266 125.866 58.7266 125.862C59.6012 125.661 60.4453 125.579 61.3112 125.434C61.3225 125.429 61.3322 125.421 61.3391 125.411C61.3461 125.401 61.35 125.39 61.3505 125.377C61.3509 125.365 61.3479 125.353 61.3417 125.343C61.3355 125.333 61.3265 125.324 61.3156 125.318Z" fill="white"/>
<path d="M59.5072 121.637C59.1391 121.635 58.7715 121.666 58.4095 121.732C58.4028 121.734 58.3971 121.738 58.393 121.744C58.3889 121.75 58.3867 121.757 58.3867 121.764C58.3867 121.771 58.3889 121.777 58.393 121.783C58.3971 121.789 58.4028 121.793 58.4095 121.796C58.7761 121.816 59.1439 121.801 59.5072 121.749C59.5223 121.749 59.5368 121.743 59.5474 121.732C59.5581 121.722 59.5641 121.708 59.5641 121.693C59.5641 121.678 59.5581 121.664 59.5474 121.654C59.5368 121.643 59.5223 121.637 59.5072 121.637Z" fill="white"/>
<path d="M29.1274 116.369C31.8604 117.276 34.4793 118.483 36.9338 119.969C39.4806 121.552 41.6891 123.605 43.437 126.012C47.1145 131.022 49.9302 136.586 51.7725 142.486C52.8 145.752 53.4341 149.125 53.6618 152.535C53.657 152.557 53.6446 152.577 53.6267 152.591C53.6088 152.605 53.5865 152.613 53.5634 152.613C53.5404 152.613 53.518 152.605 53.5001 152.591C53.4822 152.577 53.4698 152.557 53.465 152.535C52.693 146.622 50.9783 140.864 48.3832 135.471C45.8335 130.185 42.6191 124.561 37.7035 121.06C35.027 119.155 32.0182 117.906 29.0181 116.587C28.8606 116.536 28.97 116.318 29.1274 116.369Z" fill="#EBEBEB"/>
<path d="M49.818 138.715C47.918 137.023 45.8341 135.541 43.6035 134.294C40.1311 132.406 37.3103 131.165 36.4488 129.517C35.5872 127.869 38.2681 125.729 38.2681 125.729C38.2681 125.729 34.7257 127.441 33.2562 126.179C31.7868 124.916 28.6992 116.185 28.6992 116.185C28.6992 116.185 36.8817 119.031 41.9854 124.805C47.0891 130.579 49.818 138.715 49.818 138.715Z" fill="#EBEBEB"/>
<path d="M43.0236 130.677C42.2191 130.622 41.4114 130.719 40.6445 130.964C40.6445 130.964 40.6445 131.002 40.6445 130.998C41.4269 130.867 42.2173 130.787 43.0105 130.758C43.0674 130.758 43.0805 130.681 43.0236 130.677Z" fill="white"/>
<path d="M35.8843 121.518C35.5173 121.489 35.1479 121.509 34.7866 121.578C34.7472 121.578 34.7603 121.646 34.7866 121.642C35.1495 121.604 35.5038 121.616 35.8624 121.608C35.8735 121.608 35.8845 121.605 35.8934 121.598C35.9023 121.592 35.9085 121.582 35.9111 121.572C35.9137 121.561 35.9124 121.55 35.9075 121.54C35.9026 121.53 35.8944 121.522 35.8843 121.518Z" fill="white"/>
<path d="M60.367 163.573H41.8984L44.5312 144.694L45.2047 139.853H57.0608L57.7343 144.694L60.367 163.573Z" fill="#DBDBDB"/>
<path d="M57.7343 144.694H44.5312L45.2047 139.853H57.0608L57.7343 144.694Z" fill="#C7C7C7"/>
<path d="M58.7572 138.175H43.5117V142.276H58.7572V138.175Z" fill="#DBDBDB"/>
<path d="M30.1562 163.573L63.398 163.471L96.6396 163.432L163.123 163.359L229.606 163.432L262.848 163.471L296.09 163.573L262.848 163.68L229.606 163.715L163.123 163.787L96.6396 163.715L63.398 163.676L30.1562 163.573Z" fill="#263238"/>
<path d="M163.999 195.472C233.256 195.472 289.4 189.451 289.4 182.024C289.4 174.597 233.256 168.576 163.999 168.576C94.7416 168.576 38.5977 174.597 38.5977 182.024C38.5977 189.451 94.7416 195.472 163.999 195.472Z" fill="#EBEBEB"/>
<path d="M134.811 179.799C133.792 180.137 104.574 180.227 103.454 179.551C103.017 179.294 102.768 175.13 102.58 170.088C102.54 169.001 102.51 167.875 102.483 166.736L100.152 151.483L119.688 151.358L121.529 166.617L121.455 169.972C121.455 169.972 132.659 174.83 133.805 175.712C134.951 176.593 135.83 179.461 134.811 179.799Z" fill="#EB9481"/>
<path d="M134.81 179.799C133.791 180.137 104.573 180.227 103.453 179.55C102.937 179.234 102.657 173.152 102.5 166.736L121.507 166.616L121.432 169.972C121.432 169.972 132.637 174.83 133.782 175.711C134.928 176.593 135.829 179.46 134.81 179.799Z" fill="white"/>
<path d="M134.813 179.798C133.795 180.136 104.576 180.226 103.457 179.55C103.019 179.293 102.77 175.129 102.582 170.087L121.418 169.971C121.418 169.971 132.622 174.829 133.768 175.711C134.914 176.592 135.832 179.46 134.813 179.798Z" fill="#A6A6A6"/>
<path d="M134.389 178.656C129.491 178.553 109.723 178.6 104.873 178.866C104.834 178.866 104.834 178.891 104.873 178.895C109.728 179.097 129.495 178.895 134.389 178.733C134.494 178.729 134.494 178.656 134.389 178.656Z" fill="#263238"/>
<path d="M131.901 174.688C131.356 174.676 130.815 174.775 130.311 174.978C129.808 175.181 129.353 175.485 128.975 175.869C128.287 176.555 127.898 177.476 127.891 178.437C127.891 178.467 127.943 178.467 127.947 178.437C128.11 177.49 128.581 176.62 129.291 175.957C130 175.294 130.91 174.872 131.883 174.756C131.893 174.759 131.903 174.757 131.911 174.752C131.919 174.748 131.925 174.74 131.927 174.731C131.93 174.722 131.928 174.712 131.923 174.704C131.918 174.696 131.91 174.69 131.901 174.688Z" fill="#263238"/>
<path d="M123.332 170.443C121.372 170.421 119.103 171.106 117.887 172.681C117.843 172.741 117.931 172.805 117.987 172.775C119.699 171.891 121.502 171.188 123.367 170.678C123.395 170.671 123.42 170.653 123.437 170.628C123.453 170.604 123.46 170.574 123.455 170.545C123.451 170.516 123.436 170.49 123.413 170.471C123.391 170.452 123.362 170.442 123.332 170.443Z" fill="#263238"/>
<path d="M124.857 171.012C122.894 171.012 120.624 171.679 119.412 173.25C119.364 173.314 119.452 173.379 119.513 173.349C121.222 172.461 123.024 171.757 124.888 171.247C124.916 171.239 124.941 171.222 124.957 171.198C124.974 171.174 124.981 171.145 124.977 171.116C124.973 171.088 124.959 171.061 124.937 171.042C124.915 171.023 124.887 171.012 124.857 171.012Z" fill="#263238"/>
<path d="M126.363 171.585C124.404 171.585 122.134 172.248 120.918 173.823C120.874 173.883 120.962 173.948 121.019 173.918C122.73 173.033 124.534 172.33 126.398 171.82C126.427 171.813 126.452 171.795 126.468 171.77C126.484 171.746 126.491 171.716 126.487 171.688C126.482 171.659 126.467 171.632 126.445 171.613C126.422 171.594 126.393 171.584 126.363 171.585Z" fill="#263238"/>
<path d="M127.884 172.159C125.92 172.137 123.651 172.822 122.439 174.397C122.391 174.457 122.483 174.521 122.54 174.491C124.251 173.606 126.055 172.903 127.919 172.394C127.948 172.386 127.973 172.369 127.989 172.344C128.006 172.32 128.012 172.29 128.008 172.261C128.004 172.232 127.989 172.206 127.966 172.187C127.943 172.168 127.914 172.158 127.884 172.159Z" fill="#263238"/>
<path d="M106.105 174.307C103.918 174.307 103.918 177.667 106.105 177.654C108.292 177.641 108.309 174.294 106.105 174.307Z" fill="#263238"/>
<path d="M125.433 165.315C124.44 164.511 123.189 165.315 122.581 166.141C121.569 167.601 120.966 169.295 120.832 171.055C120.832 171.093 120.863 171.11 120.893 171.11C120.901 171.147 120.918 171.18 120.941 171.209C120.965 171.238 120.996 171.26 121.031 171.275C121.065 171.29 121.103 171.296 121.141 171.293C121.179 171.291 121.215 171.279 121.247 171.26C122.638 170.314 124.248 169.467 125.302 168.127C125.901 167.348 126.391 166.064 125.433 165.315ZM123.045 169.398C122.371 169.882 121.676 170.331 121.02 170.841C121.37 169.882 121.672 168.915 122.118 167.99C122.324 167.547 122.561 167.118 122.826 166.706C123.264 166.068 125.17 164.459 125.372 166.544C125.485 167.686 123.845 168.825 123.045 169.398Z" fill="#263238"/>
<path d="M115.955 171.782C117.661 172.031 119.423 171.551 121.098 171.29C121.135 171.281 121.168 171.263 121.196 171.239C121.225 171.215 121.247 171.184 121.261 171.15C121.275 171.116 121.28 171.079 121.277 171.043C121.274 171.006 121.262 170.971 121.242 170.939C121.249 170.934 121.254 170.928 121.258 170.921C121.261 170.914 121.263 170.906 121.263 170.899C121.263 170.891 121.261 170.883 121.258 170.876C121.254 170.869 121.249 170.863 121.242 170.858C119.897 169.683 118.259 168.876 116.493 168.517C115.461 168.324 114 168.602 113.869 169.856C113.712 171.038 114.958 171.628 115.955 171.782ZM114.766 170.695C113.454 169.052 115.959 168.911 116.712 169.082C117.2 169.201 117.679 169.353 118.146 169.535C119.103 169.924 120.038 170.359 120.949 170.841C120.119 170.922 119.301 171.068 118.474 171.179C117.486 171.307 115.5 171.598 114.766 170.695Z" fill="#263238"/>
<path d="M71.4297 80.9775C71.4297 80.9775 94.1142 118.744 94.7221 121.398C95.6536 125.472 100.591 165.709 100.591 165.709L124.207 165.281C124.207 165.281 120.14 129.804 116.287 118.115C113.514 109.696 93.4932 81.7736 93.4932 81.7736L71.4297 80.9775Z" fill="#37474F"/>
<path d="M122.058 161.754C118.669 161.728 106.655 161.596 102.142 162.007C102.107 162.007 102.111 162.067 102.142 162.071C103.694 162.289 118.664 161.951 122.054 161.844C122.061 161.847 122.068 161.847 122.076 161.847C122.083 161.846 122.09 161.843 122.097 161.839C122.103 161.835 122.108 161.829 122.112 161.823C122.116 161.817 122.118 161.809 122.118 161.802C122.118 161.795 122.117 161.787 122.114 161.781C122.111 161.774 122.106 161.768 122.1 161.763C122.094 161.759 122.088 161.755 122.08 161.754C122.073 161.752 122.065 161.752 122.058 161.754Z" fill="#263238"/>
<path d="M75.2962 84.4443C76.7831 86.7256 78.3575 88.9597 79.8707 91.2239C81.3838 93.488 82.9058 95.7521 84.4058 98.0119C87.3972 102.577 90.3127 107.173 93.1525 111.798C94.5384 113.942 95.724 116.204 96.6949 118.556C97.5811 120.909 98.2471 123.336 98.6847 125.806C99.1483 128.284 99.4544 130.788 99.7387 133.292C100.03 135.954 100.335 138.618 100.653 141.283C101.274 146.735 101.896 152.188 102.52 157.641C102.594 158.309 102.669 158.976 102.739 159.648C102.739 159.747 102.568 159.764 102.555 159.648C101.86 154.234 101.282 148.798 100.653 143.384C100.338 140.682 100.024 137.981 99.7125 135.282C99.4195 132.77 99.1396 130.253 98.7416 127.758C98.3764 125.295 97.8208 122.863 97.0797 120.482C96.2631 118.017 95.1689 115.648 93.8172 113.42C91.0839 108.802 88.1887 104.265 85.2936 99.7239C82.3984 95.1829 79.4246 90.6033 76.372 86.1178C75.9959 85.5657 75.6154 85.0136 75.2218 84.47C75.1912 84.4401 75.2699 84.4015 75.2962 84.4443Z" fill="#263238"/>
<path d="M78.8622 182.024C77.7864 181.96 49.9982 170.943 49.2285 169.899C49.1942 169.838 49.179 169.768 49.1848 169.698C49.1848 168.761 51.1134 165.491 52.7228 161.193C52.8234 160.92 53.5406 159.644 54.5334 157.928C57.2929 153.224 62.1036 145.122 62.1036 145.122L80.2661 152.184L71.5719 164.917L70.2205 167.999C70.2205 167.999 78.7441 176.623 79.4614 177.843C80.1786 179.062 79.9337 182.084 78.8622 182.024Z" fill="#EB9481"/>
<path d="M78.8622 182.024C77.7864 181.96 49.9982 170.943 49.2285 169.899C49.1942 169.837 49.179 169.768 49.1848 169.698C49.1848 168.76 51.1134 165.49 52.7228 161.193C52.8234 160.919 53.5406 159.644 54.5334 157.928L71.5894 164.917L70.238 167.999C70.238 167.999 78.7616 176.623 79.4789 177.843C80.1961 179.062 79.9337 182.084 78.8622 182.024Z" fill="white"/>
<path d="M78.8606 182.024C77.7848 181.96 49.9966 170.943 49.2269 169.899C48.9295 169.501 50.1715 165.79 52.7256 161.193L70.2189 168.003C70.2189 168.003 78.7425 176.618 79.4641 177.847C80.1857 179.075 79.9321 182.084 78.8606 182.024Z" fill="#A6A6A6"/>
<path d="M78.9087 180.809C74.4085 178.917 56.0668 171.701 51.4704 170.169C51.431 170.169 51.4223 170.169 51.4704 170.195C55.8918 172.163 74.2904 179.234 78.8912 180.895C78.9787 180.916 79.0049 180.848 78.9087 180.809Z" fill="#263238"/>
<path d="M78.1205 176.216C77.6215 176.001 77.0824 175.891 76.5374 175.891C75.9924 175.891 75.4533 176.001 74.9542 176.216C74.057 176.6 73.3458 177.309 72.9688 178.193C72.9688 178.219 73.0081 178.24 73.0212 178.215C73.5368 177.394 74.3102 176.759 75.2256 176.405C76.141 176.051 77.1491 175.996 78.0987 176.25C78.106 176.248 78.1123 176.244 78.1164 176.237C78.1204 176.231 78.1219 176.223 78.1205 176.216Z" fill="#263238"/>
<path d="M71.8103 169.137C70.0041 168.397 67.6338 168.2 65.9063 169.214C65.8407 169.253 65.9063 169.343 65.9632 169.339C67.8889 169.147 69.8299 169.157 71.7534 169.369C71.783 169.372 71.8128 169.364 71.8371 169.347C71.8615 169.331 71.8788 169.306 71.8857 169.277C71.8927 169.249 71.8889 169.219 71.875 169.193C71.8611 169.168 71.8381 169.148 71.8103 169.137Z" fill="#263238"/>
<path d="M72.9939 170.224C71.1877 169.483 68.8174 169.286 67.0899 170.301C67.0243 170.339 67.0899 170.429 67.1468 170.425C69.0724 170.232 71.0136 170.242 72.937 170.455C72.9666 170.458 72.9964 170.451 73.0207 170.434C73.0451 170.417 73.0624 170.392 73.0693 170.364C73.0763 170.336 73.0725 170.306 73.0586 170.28C73.0447 170.254 73.0217 170.234 72.9939 170.224Z" fill="#263238"/>
<path d="M74.1834 171.312C72.3729 170.571 70.0025 170.374 68.2794 171.389C68.2095 171.427 68.2794 171.517 68.3319 171.513C70.2575 171.32 72.1988 171.33 74.1222 171.543C74.1524 171.548 74.1834 171.541 74.2091 171.525C74.2348 171.509 74.2533 171.484 74.261 171.455C74.2687 171.426 74.265 171.395 74.2506 171.368C74.2363 171.342 74.2123 171.322 74.1834 171.312Z" fill="#263238"/>
<path d="M75.367 172.398C73.5565 171.658 71.1905 171.461 69.463 172.471C69.3931 172.514 69.463 172.604 69.5155 172.599C71.4411 172.406 73.3824 172.416 75.3058 172.629C75.336 172.634 75.367 172.628 75.3927 172.612C75.4184 172.595 75.4369 172.57 75.4446 172.541C75.4523 172.512 75.4486 172.481 75.4342 172.455C75.4199 172.429 75.3959 172.408 75.367 172.398Z" fill="#263238"/>
<path d="M54.3537 166.394C52.3113 165.598 51.0431 168.709 53.0942 169.505C55.1453 170.301 56.4179 167.19 54.3537 166.394Z" fill="#263238"/>
<path d="M75.7227 165.157C75.106 164.048 73.6497 164.322 72.7619 164.874C71.2664 165.855 70.06 167.202 69.2633 168.782C69.2598 168.789 69.2579 168.796 69.2578 168.804C69.2577 168.812 69.2595 168.819 69.2628 168.826C69.2662 168.833 69.2711 168.84 69.2772 168.844C69.2834 168.849 69.2906 168.853 69.2982 168.854C69.2982 168.996 69.3945 169.163 69.565 169.128C71.2225 168.756 73.0374 168.563 74.5244 167.707C75.3772 167.211 76.3043 166.205 75.7227 165.157ZM71.9397 168.063C71.1307 168.264 70.3172 168.426 69.5169 168.658C70.1789 167.877 70.881 167.13 71.6205 166.419C71.9845 166.08 72.3717 165.765 72.7794 165.478C73.4136 165.05 75.8101 164.258 75.1979 166.265C74.8611 167.374 72.9062 167.823 71.9397 168.063Z" fill="#263238"/>
<path d="M64.4525 167.669C65.9394 168.525 67.7544 168.726 69.4075 169.103C69.578 169.141 69.6918 168.974 69.6786 168.829C69.6868 168.828 69.6947 168.825 69.7014 168.82C69.7081 168.816 69.7135 168.809 69.717 168.802C69.7205 168.795 69.7221 168.787 69.7215 168.779C69.7209 168.771 69.7182 168.763 69.7136 168.756C68.9181 167.173 67.7116 165.823 66.2149 164.84C65.3403 164.284 63.8752 164.005 63.2542 165.11C62.6332 166.214 63.5822 167.168 64.4525 167.669ZM63.7703 166.222C63.1624 164.215 65.5546 165.011 66.1887 165.443C66.5959 165.732 66.9817 166.048 67.3433 166.389C68.0813 167.102 68.782 167.85 69.4425 168.632C68.6422 168.401 67.8287 168.234 67.0196 168.033C66.04 167.776 64.1026 167.348 63.7703 166.222Z" fill="#263238"/>
<path d="M72.9879 164.206L52.6562 156.173C52.6562 156.173 77.8641 119.9 78.0478 117.199C78.214 114.811 67.1407 94.0014 66.7078 87.9366C66.2355 81.3882 69.4542 76.325 72.9966 73.1792L93.9668 81.9061C93.9668 81.9061 91.7539 85.3686 88.2814 87.2989C88.2814 87.2989 99.0354 111.353 98.4232 118.748C97.8109 126.144 72.9879 164.206 72.9879 164.206Z" fill="#37474F"/>
<path d="M73.8862 160.423C70.9473 159.186 71.8089 159.499 68.8525 158.283C67.4093 157.693 57.9192 153.828 56.4585 153.507C56.4279 153.507 56.406 153.55 56.4366 153.567C57.7005 154.324 67.2694 158.027 68.7257 158.591C71.7039 159.739 70.8599 159.379 73.8512 160.492C73.8557 160.498 73.8616 160.502 73.8684 160.505C73.8752 160.508 73.8827 160.509 73.8901 160.509C73.8976 160.508 73.9047 160.506 73.9109 160.501C73.917 160.497 73.922 160.492 73.9253 160.485C73.9287 160.479 73.9302 160.471 73.9299 160.464C73.9296 160.457 73.9273 160.45 73.9234 160.444C73.9195 160.437 73.914 160.432 73.9075 160.429C73.901 160.425 73.8937 160.423 73.8862 160.423Z" fill="#263238"/>
<path d="M91.7154 86.8585C89.5322 87.3566 87.3962 88.0353 85.3304 88.8873C85.322 88.8901 85.3144 88.8945 85.3078 88.9002C85.3012 88.9059 85.2958 88.9128 85.2919 88.9206C85.2881 88.9283 85.2858 88.9367 85.2853 88.9453C85.2847 88.9539 85.286 88.9626 85.2888 88.9707C85.2917 88.9789 85.2962 88.9864 85.302 88.9928C85.3079 88.9993 85.3149 89.0046 85.3229 89.0083C85.3308 89.0121 85.3394 89.0143 85.3482 89.0148C85.357 89.0154 85.3658 89.0142 85.3741 89.0114C87.517 88.3993 89.695 87.8258 91.8029 87.1025C91.9647 87.0469 91.8816 86.8243 91.7154 86.8585Z" fill="#263238"/>
<path d="M89.2197 86.0281C89.0159 86.3828 88.8362 86.7503 88.6818 87.1281C88.5308 87.4148 88.4373 87.7272 88.4063 88.0483C88.4062 88.1125 88.4937 88.1253 88.5331 88.0868C88.7525 87.83 88.9296 87.5411 89.0579 87.2308C89.2372 86.8927 89.4209 86.5588 89.5914 86.2122C89.7095 85.9596 89.3553 85.797 89.2197 86.0281Z" fill="#263238"/>
<path d="M89.4809 84.0849C89.6121 83.7682 89.739 83.4558 89.8745 83.1391C90.0101 82.8223 90.1807 82.4971 90.3119 82.1632C90.3119 82.1119 90.4168 82.1632 90.395 82.2017C90.2638 82.5185 90.1807 82.8523 90.0801 83.1776C89.9795 83.5028 89.8658 83.8281 89.7565 84.1534C89.5509 84.7569 89.3191 85.3561 89.0349 85.9425C89.379 85.9593 89.7226 85.9008 90.0407 85.7712C90.3657 85.5677 90.6155 85.2678 90.7536 84.9152C90.9373 84.5643 91.1078 84.2048 91.2959 83.8538C91.5273 83.4744 91.7221 83.0746 91.8775 82.6597C91.8775 82.6083 91.9825 82.6597 91.9606 82.6982C91.6755 83.5755 91.3019 84.4228 90.8454 85.2277C90.6486 85.5401 90.4956 85.8697 90.1369 85.9895C89.7487 86.0958 89.3425 86.1234 88.943 86.0709C88.8905 86.0709 88.8293 86.0709 88.8468 85.9938C89.0259 85.3477 89.2375 84.7106 89.4809 84.0849Z" fill="#263238"/>
<path d="M88.594 88.0826C89.3418 89.6277 89.9978 91.1685 90.6932 92.7093C91.3885 94.2501 92.0051 95.7395 92.6305 97.2717C93.8813 100.362 95.0009 103.512 95.9849 106.688C96.4703 108.263 96.9208 109.851 97.3231 111.451C97.7663 113.047 98.0908 114.672 98.294 116.313C98.4695 117.952 98.321 119.609 97.8567 121.193C97.3744 122.758 96.7554 124.28 96.0067 125.742C95.5475 126.667 95.3945 126.543 95.6132 126.076C96.2385 124.749 97.8785 120.73 97.7605 117.353C97.6648 115.737 97.41 114.133 96.9995 112.564C96.6176 110.946 96.1875 109.341 95.7094 107.749C94.7778 104.608 93.6714 101.53 92.5343 98.4573C91.8958 96.7453 91.2223 95.0333 90.5663 93.3213C89.9103 91.6093 89.2543 90.0343 88.5196 88.1425C88.4977 88.0655 88.5721 88.0355 88.594 88.0826Z" fill="#263238"/>
<path d="M73.1578 82.976C73.5208 82.8433 74.0325 83.0616 74.3999 83.1215C74.8756 83.2006 75.3564 83.2477 75.8387 83.2628C76.3159 83.2792 76.7938 83.2635 77.2688 83.2157C77.7472 83.2036 78.216 83.0819 78.6376 82.8605C79.3294 82.3673 79.9224 81.7535 80.387 81.05C80.9405 80.3311 81.3976 79.5458 81.7471 78.7131C81.7471 78.6618 81.8389 78.7131 81.8214 78.7474C81.6684 79.2225 81.5546 79.7018 81.3841 80.1683C81.1955 80.6067 80.9703 81.029 80.7106 81.4309C80.2895 82.2398 79.6668 82.9317 78.9 83.4425C78.056 83.9133 76.9714 83.8705 76.0311 83.832C75.4858 83.8009 74.9435 83.7308 74.4086 83.6223C74.0238 83.541 73.3765 83.4811 73.1316 83.1515C73.1201 83.1389 73.1115 83.124 73.1066 83.1078C73.1016 83.0916 73.1003 83.0745 73.1028 83.0577C73.1053 83.041 73.1115 83.025 73.121 83.0109C73.1306 82.9968 73.1431 82.9849 73.1578 82.976Z" fill="#263238"/>
<path d="M58.4548 152.368C61.7961 147.415 65.0761 142.421 68.2948 137.388C71.5136 132.355 74.6887 127.283 77.82 122.173C78.5678 120.953 79.4293 119.737 79.9104 118.385C80.4352 116.917 80.1378 115.492 79.6655 114.053C78.7736 111.43 77.7311 108.858 76.5429 106.349C75.3709 103.82 74.107 101.333 72.865 98.8381C71.6229 96.3428 70.3241 93.8776 69.3663 91.2753C68.4916 88.7886 68.1374 86.2121 68.8196 83.6355C69.5019 81.059 70.9713 78.782 72.5064 76.6377C72.9087 76.0728 73.3242 75.5121 73.7309 74.9257C73.7615 74.8829 73.8271 74.9257 73.7965 74.9771C72.104 77.2112 70.4553 79.5781 69.4625 82.2017C68.9551 83.495 68.6714 84.8619 68.6228 86.2463C68.6146 87.6517 68.8375 89.0491 69.2832 90.3851C70.1054 92.9873 71.4043 95.4483 72.6157 97.8965C73.8271 100.345 75.1216 102.878 76.3155 105.399C77.5472 107.937 78.6421 110.535 79.5955 113.185C80.0023 114.362 80.4702 115.594 80.4352 116.857C80.4046 118.239 79.7311 119.485 79.0314 120.649C75.97 125.721 72.8344 130.733 69.6418 135.715C66.4493 140.696 63.1649 145.678 59.8412 150.609L58.5817 152.471C58.5161 152.548 58.4024 152.458 58.4548 152.368Z" fill="#263238"/>
<path d="M95.1259 58.8373C97.0196 62.9033 106.584 68.5058 111.062 69.1093C114.281 69.5373 124.069 69.6913 127.423 69.1906C131.359 68.5999 128.35 58.2209 126.028 58.4906C119.643 59.2182 114.22 60.0314 112.514 60.0314C110.433 60.0314 99.1712 56.4961 97.8155 55.9953C94.4918 54.7841 94.0544 56.5303 95.1259 58.8373Z" fill="#EB9481"/>
<path d="M95.1873 59.9195C97.5839 63.3906 105.548 69.0659 105.548 69.0659L106.654 66.6691L110.315 58.7425C110.315 58.7425 102.998 56.4955 98.183 55.4683C97.6164 55.3421 97.0401 55.2619 96.4599 55.2286C93.3855 55.066 93.1187 56.9235 95.1873 59.9195Z" fill="#88B0ED"/>
<path d="M95.1873 59.9198C97.5839 63.3909 105.548 69.0661 105.548 69.0661L106.654 66.6693C103.685 63.2924 99.097 58.1778 96.4599 55.2375C93.3855 55.0663 93.1187 56.9238 95.1873 59.9198Z" fill="#263238"/>
<path d="M104.115 67.4575C104.723 65.998 107.426 60.1215 108.099 58.8975C108.143 58.8119 108.213 58.8204 108.174 58.8975C107.001 61.8198 105.667 64.6774 104.176 67.4575C104.159 67.5088 104.089 67.4917 104.115 67.4575Z" fill="#263238"/>
<path d="M124.859 58.5971C128.743 58.1006 133.549 57.2489 137.621 58.9395C138.078 59.115 138.462 59.4361 138.71 59.8511C140.547 60.5787 140.748 61.6444 140.748 61.6444C142.248 62.8343 142.3 63.9556 142.3 63.9556C142.3 63.9556 144.452 64.8116 144.124 66.1898C143.765 67.7135 140.818 66.1898 138.675 66.3139C133.755 66.6135 126.867 68.3811 125.445 68.6037L124.859 58.5971Z" fill="#EB9481"/>
<path d="M133.291 63.0831C134.729 62.9868 136.173 62.9868 137.612 63.0831C139.178 63.2754 140.728 63.583 142.247 64.0033C142.257 64.0067 142.268 64.0061 142.277 64.0017C142.287 63.9973 142.294 63.9894 142.298 63.9797C142.301 63.9701 142.301 63.9595 142.296 63.9503C142.292 63.941 142.283 63.9339 142.274 63.9305C139.419 62.8345 136.312 62.5265 133.291 63.0403C133.221 63.0317 133.221 63.0874 133.291 63.0831Z" fill="#263238"/>
<path d="M132.377 58.6359C134.778 58.7558 136.278 59.1324 138.692 59.8429V59.8172C136.033 58.7301 134.944 58.6274 132.364 58.5332C132.281 58.5674 132.285 58.6359 132.377 58.6359Z" fill="#263238"/>
<path d="M132.771 67.042C132.145 67.3288 132.298 67.6498 133.492 67.9194C134.686 68.189 139.65 68.2704 139.475 69.9652C139.3 71.6601 132.298 71.4461 130.343 70.8469C128.389 70.2477 125.445 68.6042 125.445 68.6042C126.832 68.3773 130.085 67.5171 132.771 67.042Z" fill="#EB9481"/>
<path d="M100.329 65.317C100.299 66.0489 100.229 66.7936 100.124 67.534C100.124 67.5041 100.124 67.4784 100.154 67.4527C100.299 67.0675 100.443 66.6738 100.618 66.3014C100.618 66.3014 100.662 66.3014 100.657 66.3014C100.573 66.7094 100.447 67.108 100.281 67.4912C100.202 67.6753 100.128 67.855 100.045 68.0348C99.9925 68.3644 99.9313 68.6896 99.8657 69.0149C99.7345 69.627 99.1441 72.2292 98.9911 72.67C98.9648 72.7599 98.8511 72.7385 98.8599 72.6358C98.8905 72.1564 99.3847 69.4472 99.4852 68.8309C99.6806 67.6409 99.9419 66.4621 100.268 65.2999C100.29 65.2785 100.334 65.2956 100.329 65.317Z" fill="#263238"/>
<path d="M95.7785 84.7781C94.6109 85.3645 93.1064 86.2761 86.3278 84.9707C85.8904 84.8851 85.4793 84.7824 85.0508 84.6583C78.6963 82.7922 71.0561 75.4777 70.6406 74.9598C70.6406 74.9598 80.7386 58.9397 93.6531 53.9022C95.2494 53.2816 97.8909 54.48 99.3384 55.9737C99.8589 56.5087 100.992 60.442 100.559 63.6263C100.126 66.8107 96.9418 84.1917 95.7785 84.7781Z" fill="#88B0ED"/>
<path d="M94.8658 63.481C94.9146 64.1579 94.8178 64.8374 94.5816 65.4754C94.5261 64.7983 94.6232 64.1174 94.8658 63.481Z" fill="white"/>
<path d="M90.4646 74.3906C90.4924 74.7275 90.4807 75.0664 90.4296 75.4007C90.3875 75.7375 90.3038 76.068 90.1803 76.3851C90.1502 76.0468 90.162 75.7063 90.2153 75.3707C90.26 75.0358 90.3437 74.707 90.4646 74.3906Z" fill="white"/>
<path d="M82.9828 66.1431C83.0321 66.8214 82.9352 67.5024 82.6985 68.1418C82.6436 67.4633 82.7406 66.7811 82.9828 66.1431Z" fill="white"/>
<path d="M97.7497 73.834C97.7777 74.1723 97.7659 74.5126 97.7148 74.8483C97.6727 75.1851 97.589 75.5157 97.4655 75.8327C97.4354 75.4945 97.4471 75.1539 97.5005 74.8184C97.5447 74.482 97.6283 74.1517 97.7497 73.834Z" fill="white"/>
<path d="M88.1445 64.7308C88.4886 64.7021 88.8349 64.7122 89.1766 64.7607C89.5209 64.8034 89.8587 64.8868 90.1825 65.009C89.4907 65.0576 88.7963 64.9628 88.1445 64.7308Z" fill="white"/>
<path d="M79.6523 72.6102C80.3441 72.5624 81.0383 72.6572 81.6903 72.8884C80.9984 72.9426 80.3027 72.8477 79.6523 72.6102Z" fill="white"/>
<path d="M89.6562 81.1403C90.348 81.0917 91.0425 81.1865 91.6942 81.4185C91.0023 81.472 90.3068 81.377 89.6562 81.1403Z" fill="white"/>
<path d="M77.0312 78.0413C77.723 77.9936 78.4172 78.0884 79.0692 78.3195C78.3773 78.373 77.6818 78.278 77.0312 78.0413Z" fill="white"/>
<path d="M94.8008 55.8113C95.4925 55.7636 96.1868 55.8584 96.8387 56.0895C96.147 56.1373 95.4528 56.0425 94.8008 55.8113Z" fill="white"/>
<path d="M92.3339 58.542C92.1128 58.8021 91.8602 59.0349 91.5817 59.2354C91.3107 59.4404 91.0174 59.6156 90.707 59.7575C90.9267 59.4991 91.1762 59.2664 91.4505 59.0642C91.7241 58.8583 92.0204 58.6831 92.3339 58.542Z" fill="white"/>
<path d="M78.8695 66.3018C78.6457 66.5596 78.3918 66.7909 78.1129 66.9908C77.8447 67.1998 77.5509 67.3752 77.2383 67.513C77.4633 67.2562 77.717 67.0251 77.9949 66.8239C78.2637 66.6159 78.5575 66.4405 78.8695 66.3018Z" fill="white"/>
<path d="M95.682 69.8027C95.4583 70.0619 95.2044 70.2946 94.9254 70.4961C94.6566 70.7042 94.3629 70.8795 94.0508 71.0183C94.2745 70.7591 94.5284 70.5264 94.8074 70.3249C95.0777 70.1189 95.3712 69.9437 95.682 69.8027Z" fill="white"/>
<path d="M84.7953 76.5137C84.5716 76.7729 84.3177 77.0056 84.0387 77.207C83.7694 77.4145 83.4758 77.5898 83.1641 77.7292C83.3878 77.47 83.6417 77.2373 83.9207 77.0358C84.191 76.8299 84.4845 76.6547 84.7953 76.5137Z" fill="white"/>
<path d="M99.8539 60.6343C99.6302 60.8935 99.3763 61.1262 99.0973 61.3276C98.8263 61.5327 98.533 61.7078 98.2227 61.8498C98.4464 61.5906 98.7003 61.3579 98.9792 61.1564C99.2486 60.949 99.5422 60.7737 99.8539 60.6343Z" fill="white"/>
<path d="M99.6248 68.4114C99.36 68.1924 99.1222 67.9439 98.9164 67.6709C98.7035 67.408 98.5243 67.1205 98.3828 66.8149C98.6486 67.0313 98.8865 67.2785 99.0913 67.5511C99.3002 67.8183 99.4791 68.1067 99.6248 68.4114Z" fill="white"/>
<path d="M75.3592 73.7703C75.0944 73.5513 74.8566 73.3028 74.6507 73.0298C74.4403 72.7652 74.2613 72.4781 74.1172 72.1738C74.382 72.3928 74.6198 72.6413 74.8257 72.9143C75.0376 73.1778 75.2168 73.4652 75.3592 73.7703Z" fill="white"/>
<path d="M96.6756 80.1434C96.4098 79.9271 96.1719 79.6799 95.9671 79.4073C95.7576 79.1421 95.5786 78.855 95.4336 78.5513C95.6984 78.7702 95.9362 79.0187 96.1421 79.2917C96.3531 79.5544 96.5322 79.8402 96.6756 80.1434Z" fill="white"/>
<path d="M85.992 61.9745C85.7273 61.757 85.4895 61.51 85.2835 61.2383C85.0749 60.9725 84.896 60.6855 84.75 60.3823C85.0158 60.5987 85.2537 60.8459 85.4585 61.1185C85.6671 61.3843 85.846 61.6713 85.992 61.9745Z" fill="white"/>
<path d="M86.1795 83.7722C85.9147 83.5533 85.6769 83.3048 85.471 83.0318C85.2612 82.7667 85.0823 82.4796 84.9375 82.1758C85.2033 82.3922 85.4412 82.6394 85.646 82.9119C85.8564 83.1781 86.0354 83.4667 86.1795 83.7722Z" fill="white"/>
<path d="M87.9955 70.9153C87.7331 70.6951 87.4969 70.4467 87.2914 70.1748C87.0778 69.9123 86.8986 69.6248 86.7578 69.3188C87.0213 69.5379 87.2576 69.7864 87.4619 70.0593C87.6745 70.3224 87.8537 70.6099 87.9955 70.9153Z" fill="white"/>
<path d="M96.9718 60.2414C95.3231 59.9418 93.7749 56.6076 93.5781 54.3649C93.5781 54.2108 94.3478 52.991 95.2269 51.4631C95.7604 50.5343 96.3246 49.4857 96.775 48.4928C96.8669 48.2916 97.4048 48.9721 97.4048 48.9721L98.5768 49.8281L102.447 52.7342C101.526 53.8166 100.743 55.0053 100.116 56.2738C100.054 56.4113 100.007 56.5547 99.9763 56.7018C99.9746 56.726 99.9746 56.7503 99.9763 56.7745C99.7358 57.622 98.5593 60.5281 96.9718 60.2414Z" fill="#EB9481"/>
<path d="M99.9766 56.7228C99.9749 56.747 99.9749 56.7713 99.9766 56.7955C99.7468 56.7296 99.523 56.6451 99.3075 56.543C95.0697 54.5999 96.9372 49.0444 96.9372 49.0444L98.599 49.8491L102.469 52.7552C101.548 53.8376 100.765 55.0262 100.138 56.2948C100.069 56.4314 100.015 56.5749 99.9766 56.7228Z" fill="#263238"/>
<path d="M106.895 40.9082C106.895 40.9082 108.832 42.1109 108.841 44.2509C108.849 46.3909 107.966 48.4838 107.782 48.5608C107.599 48.6379 106.895 40.9082 106.895 40.9082Z" fill="#263238"/>
<path d="M97.2845 42.0208C96.1212 44.2678 96.1824 51.3512 97.6344 53.1745C99.7423 55.8195 103.801 56.7312 106.254 54.1161C108.629 51.5823 108.384 42.3546 106.692 40.6341C104.229 38.0918 99.0076 38.6952 97.2845 42.0208Z" fill="#EB9481"/>
<path d="M103.456 47.6924C103.456 47.6924 103.417 47.7181 103.421 47.7352C103.447 48.2188 103.395 48.7752 102.953 48.9464C102.953 48.9464 102.953 48.9764 102.953 48.9721C103.5 48.8865 103.561 48.1461 103.456 47.6924Z" fill="#263238"/>
<path d="M103.005 47.1996C102.209 47.1568 102.182 48.7147 102.922 48.7532C103.661 48.7918 103.669 47.2338 103.005 47.1996Z" fill="#263238"/>
<path d="M106.16 47.6748C106.16 47.6748 106.2 47.6748 106.2 47.7176C106.174 48.2012 106.23 48.7576 106.676 48.9246C106.676 48.9246 106.676 48.9545 106.676 48.9502C106.125 48.8689 106.06 48.1285 106.16 47.6748Z" fill="#263238"/>
<path d="M106.611 47.1788C107.402 47.1317 107.441 48.6896 106.707 48.7324C105.972 48.7752 105.946 47.2173 106.611 47.1788Z" fill="#263238"/>
<path d="M102.512 46.0144C102.721 45.9562 102.927 45.8876 103.129 45.809C103.359 45.7683 103.568 45.6538 103.724 45.4837C103.761 45.4214 103.777 45.3486 103.769 45.2767C103.76 45.2047 103.727 45.1376 103.676 45.0856C103.557 44.9976 103.417 44.9421 103.269 44.9247C103.122 44.9074 102.972 44.929 102.836 44.9872C102.541 45.0645 102.285 45.2459 102.119 45.4965C102.085 45.5561 102.07 45.6238 102.075 45.6916C102.08 45.7594 102.105 45.8244 102.146 45.8789C102.187 45.9334 102.244 45.9751 102.309 45.9991C102.374 46.0231 102.444 46.0285 102.512 46.0144Z" fill="#263238"/>
<path d="M107.148 46.7037C106.935 46.6571 106.725 46.6 106.518 46.5325C106.287 46.5026 106.074 46.3987 105.91 46.2371C105.868 46.1776 105.847 46.1059 105.852 46.0336C105.857 45.9614 105.887 45.8928 105.936 45.8391C106.049 45.7447 106.186 45.6818 106.332 45.657C106.478 45.6321 106.628 45.6462 106.767 45.6979C107.066 45.7585 107.331 45.9264 107.511 46.1687C107.548 46.226 107.568 46.2927 107.567 46.3608C107.567 46.4288 107.546 46.4952 107.507 46.5519C107.469 46.6086 107.414 46.6531 107.35 46.6801C107.287 46.707 107.216 46.7152 107.148 46.7037Z" fill="#263238"/>
<path d="M102.338 52.2674C102.456 52.3829 102.57 52.537 102.749 52.5541C102.933 52.554 103.115 52.5161 103.283 52.4429C103.283 52.4429 103.313 52.4429 103.283 52.4685C103.211 52.5626 103.114 52.6358 103.004 52.6803C102.893 52.7248 102.771 52.7389 102.653 52.7211C102.553 52.6944 102.463 52.6396 102.395 52.5636C102.326 52.4875 102.282 52.3934 102.268 52.2931C102.265 52.284 102.265 52.2739 102.269 52.2651C102.273 52.2563 102.281 52.2494 102.29 52.246C102.299 52.2426 102.309 52.2429 102.318 52.2469C102.327 52.2509 102.334 52.2583 102.338 52.2674Z" fill="#263238"/>
<path d="M105.202 50.2047C105.202 50.2047 105.224 50.9238 105.202 51.2619C104.53 51.1921 103.851 51.2151 103.186 51.3304C103.028 51.3646 103.046 51.2405 103.225 51.1592C103.761 50.9194 104.358 50.8419 104.939 50.9366C104.974 50.8467 104.882 49.8238 104.939 49.8281C105.204 49.8789 105.46 49.9653 105.7 50.0849C105.7 48.5783 105.455 47.0889 105.477 45.5823C105.477 45.531 105.56 45.5224 105.569 45.5823C105.88 47.1761 106.026 48.7963 106.006 50.4187C106.011 50.6028 105.333 50.2732 105.202 50.2047Z" fill="#263238"/>
<path d="M104.216 51.0048C104.042 51.4536 103.719 51.832 103.298 52.0791C102.638 52.3402 102.423 51.7538 103.088 51.2231C103.437 51.0507 103.827 50.9752 104.216 51.0048Z" fill="#263238"/>
<path d="M103.528 51.9463C103.458 52.002 103.38 52.0467 103.297 52.079C102.689 52.3187 102.448 51.8436 102.938 51.3643C103.27 51.3899 103.651 51.5098 103.528 51.9463Z" fill="#FF99BA"/>
<path d="M96.9534 48.0774C97.7538 48.3171 98.6722 45.9631 98.9346 45.0814C99.162 44.2853 99.4244 41.7558 99.4637 41.5803C99.5031 41.4049 102.962 43.8188 104.965 43.2453C106.968 42.6717 108.328 40.8955 108.359 40.0695C108.39 39.2435 105.884 37.1463 103.719 37.0393C101.554 36.9323 98.6197 39.6073 98.6197 39.6073C98.9741 39.2136 99.2959 38.7928 99.5818 38.3489C99.5468 38.2548 98.1474 38.8026 97.8893 39.7785C97.8893 39.7785 98.1692 38.5501 98.0643 38.5287C97.9593 38.5073 96.8703 39.5559 97.1152 40.352C97.1152 40.352 95.8557 41.4177 95.742 42.5861C95.6283 43.7546 96.0132 47.7949 96.9534 48.0774Z" fill="#263238"/>
<path d="M106.4 42.7998C105.804 43.1159 105.163 43.341 104.497 43.4675C103.751 43.5326 102.999 43.415 102.311 43.1251C101.617 42.8628 100.973 42.4897 100.404 42.0208C99.9011 41.6185 99.4506 41.1263 98.9127 40.7668C98.7771 40.6726 98.6241 40.8652 98.7071 40.9851C99.6046 42.2257 100.887 43.1502 102.363 43.6216C103.049 43.8404 103.781 43.8813 104.488 43.7402C105.195 43.5992 105.852 43.281 106.395 42.8169C106.395 42.8169 106.409 42.7998 106.4 42.7998Z" fill="#263238"/>
<path d="M97.7879 47.8676C97.7879 47.8676 96.5459 45.4023 95.4263 45.8003C94.3067 46.1984 94.989 49.6095 96.1392 50.2344C96.2801 50.3236 96.4379 50.3841 96.6032 50.4121C96.7686 50.4402 96.938 50.4353 97.1013 50.3977C97.2647 50.3601 97.4186 50.2907 97.5539 50.1935C97.6891 50.0963 97.803 49.9734 97.8885 49.8321L97.7879 47.8676Z" fill="#EB9481"/>
<path d="M95.6484 46.772C95.6484 46.772 95.6221 46.772 95.6484 46.8062C96.4443 47.2685 96.768 48.0902 96.9604 48.9462C96.9241 48.8556 96.8682 48.7738 96.7965 48.7064C96.7248 48.639 96.639 48.5876 96.545 48.5559C96.451 48.5241 96.3511 48.5127 96.2521 48.5225C96.1532 48.5323 96.0576 48.5629 95.972 48.6124C95.9458 48.6124 95.972 48.6595 95.972 48.6595C96.1285 48.6356 96.2886 48.6599 96.4304 48.7289C96.5721 48.7979 96.6886 48.9082 96.7636 49.0447C96.8888 49.2732 96.9885 49.5143 97.061 49.7637C97.0872 49.845 97.2315 49.8236 97.2184 49.7337C97.4065 48.668 96.7942 47.0545 95.6484 46.772Z" fill="#263238"/>
<path d="M89.5871 58.8752C88.7124 63.7245 94.0829 80.0612 97.5247 83.1129C102.646 87.6497 112.114 90.6328 115.547 91.6044C117.043 92.0324 121.18 81.7304 119.667 81.0499C116.426 79.6076 106.359 76.526 105.401 75.7556C104.443 74.9852 98.6705 66.8232 96.099 62.1238C92.6572 55.7979 90.02 56.4228 89.5871 58.8752Z" fill="#EB9481"/>
<path d="M117.116 80.1431C117.116 80.1431 121.585 81.2601 124.467 82.1204C126.077 82.6041 128.762 83.6698 129.781 84.5515C131.303 85.874 136.804 92.3453 135.23 93.685C133.804 94.9005 129.798 88.7501 129.798 88.7501C129.798 88.7501 134.399 94.6052 132.422 95.7565C130.446 96.9078 126.829 89.3707 126.829 89.3707C126.829 89.3707 131.417 95.4911 129.173 96.36C127.476 97.0148 123.838 90.368 123.838 90.368C123.838 90.368 127.747 95.6538 126.024 96.4028C124.126 97.2331 120.378 91.301 120.378 91.301C115.69 92.4866 112.944 91.1726 111.137 90.017C110.713 89.7345 117.116 80.1431 117.116 80.1431Z" fill="#EB9481"/>
<path d="M128.338 86.6228C128.907 87.2905 129.484 87.9667 129.987 88.6815C130.49 89.3963 130.967 90.1324 131.4 90.89C131.986 91.8698 132.456 92.9124 132.799 93.9973C132.047 92.1141 130.285 89.5247 129.782 88.8099C129.279 88.0951 128.811 87.3547 128.312 86.6399C128.299 86.6228 128.325 86.6057 128.338 86.6228Z" fill="#263238"/>
<path d="M125.67 88.3559C126.641 89.1092 128.675 91.9083 129.458 93.7872C129.493 93.8643 129.458 93.86 129.401 93.7872C128.789 92.8585 126.305 89.2633 125.649 88.3687C125.635 88.3559 125.657 88.3431 125.67 88.3559Z" fill="#263238"/>
<path d="M123.099 89.4525C124.306 90.6908 125.259 92.1436 125.907 93.7325C125.938 93.8095 125.876 93.7967 125.828 93.7325C124.923 92.2901 124.223 91.1645 123.051 89.491C123.034 89.4525 123.073 89.414 123.099 89.4525Z" fill="#263238"/>
<path d="M94.4687 59.2305C90.4759 53.705 88.088 55.7509 88.8883 61.7514C89.6406 67.3625 91.6479 74.0479 91.6479 74.0479L101.707 69.2714C101.707 69.2714 97.0096 62.7701 94.4687 59.2305Z" fill="#88B0ED"/>
<path d="M96.8968 61.4053C97.0293 61.7174 97.1247 62.0434 97.181 62.3768C97.2424 62.7114 97.2645 63.0517 97.2466 63.3912C97.1155 63.0775 97.0216 62.7501 96.9667 62.4154C96.9017 62.0827 96.8782 61.7435 96.8968 61.4053Z" fill="white"/>
<path d="M90.9336 64.765C91.5755 64.5094 92.2662 64.3926 92.9584 64.4226C92.6394 64.5509 92.3063 64.6428 91.9657 64.6965C91.6258 64.76 91.2792 64.783 90.9336 64.765Z" fill="white"/>
<path d="M91.193 56.1709C90.9222 56.7964 90.5181 57.3582 90.0078 57.8187C90.2786 57.1932 90.6827 56.6314 91.193 56.1709Z" fill="white"/>
<path d="M99.7125 67.3457C99.5798 67.6587 99.411 67.956 99.2096 68.2317C99.0134 68.5109 98.7845 68.7666 98.5273 68.9935C98.7982 68.368 99.2022 67.8062 99.7125 67.3457Z" fill="white"/>
<path d="M92.7189 70.697C92.3983 70.5686 92.0944 70.4034 91.8136 70.2048C91.5282 70.013 91.2669 69.7889 91.0352 69.5371C91.6743 69.8022 92.2483 70.1976 92.7189 70.697Z" fill="white"/>
<path d="M95.7767 60.8955C96.3146 61.6188 96.87 62.325 97.4211 63.0355C97.2811 62.676 97.1587 62.3122 97.0537 61.9441H97.08C97.1893 62.2266 97.3161 62.5048 97.4211 62.8001L97.5785 63.2281C97.5921 63.2573 97.6038 63.2873 97.6135 63.318C98.0508 63.8701 98.4882 64.4222 98.8905 64.9872C99.3847 65.6634 99.8614 66.3482 100.342 67.033C100.824 67.7178 101.309 68.5696 101.829 69.2586C101.878 69.3186 100.955 69.6866 100.854 69.7337C100.754 69.7808 100.701 69.6995 100.797 69.6695C100.894 69.6395 101.628 69.1987 101.637 69.1902C101.156 68.4968 100.6 67.8591 100.098 67.1871C99.5946 66.5151 99.0961 65.8432 98.6106 65.1627C97.6266 63.7759 96.7257 62.3379 95.7461 60.9469L95.7767 60.8955Z" fill="#263238"/>
<path d="M89.1212 65.724C89.2743 66.0151 89.4405 66.3018 89.5586 66.6014L89.7247 66.9738C89.493 65.9081 89.2874 64.8338 89.0469 63.7681C89.5104 65.4801 89.9784 67.2306 90.407 68.9683C90.8137 70.6289 91.3079 72.3067 91.5441 74.0015C91.849 73.8706 92.1651 73.7661 92.4887 73.6891C92.1639 73.8948 91.8143 74.0601 91.4478 74.1813C90.9206 72.4578 90.4828 70.7093 90.1358 68.9426C90.0265 68.4632 89.9259 67.9839 89.821 67.5045C89.7073 67.2135 89.5717 66.9353 89.4361 66.6485C89.3005 66.3617 89.1781 66.0407 89.0556 65.7369C89.0819 65.7197 89.1125 65.7026 89.1212 65.724Z" fill="#263238"/>
<path d="M91.7947 72.396C93.1942 71.6256 99.0413 68.6639 100.349 68.116C100.441 68.0775 100.489 68.116 100.397 68.176C97.6216 69.7543 94.7601 71.1831 91.8253 72.456C91.7904 72.4645 91.7554 72.4174 91.7947 72.396Z" fill="#263238"/>
<path d="M252.044 184.917H118.797L138.061 77.9814H271.308L252.044 184.917Z" fill="#88B0ED"/>
<path d="M183.672 66.9048H140.065L138.066 77.9814H184.734L183.672 66.9048Z" fill="#88B0ED"/>
<g opacity="0.1">
<path d="M252.044 184.917H118.797L138.061 77.9814H271.308L252.044 184.917Z" fill="black"/>
<path d="M183.668 66.9048H140.061L138.062 77.9814H184.73L183.668 66.9048Z" fill="black"/>
</g>
<path d="M135.359 71.4243C135.068 70.1995 135.068 68.9255 135.359 67.7007C135.651 68.9255 135.651 70.1995 135.359 71.4243Z" fill="#263238"/>
<path d="M131.485 72.5203C131.04 72.0684 130.656 71.562 130.343 71.0138C130.016 70.4769 129.759 69.9017 129.578 69.3018C130.025 69.751 130.409 70.2561 130.72 70.804C131.047 71.3428 131.304 71.9193 131.485 72.5203Z" fill="#263238"/>
<path d="M128.684 75.3662C127.455 75.0005 126.328 74.3636 125.391 73.5044C126.004 73.6788 126.592 73.9291 127.14 74.2491C127.7 74.5569 128.219 74.9322 128.684 75.3662Z" fill="#263238"/>
<path d="M127.699 79.2013C126.448 79.4867 125.146 79.4867 123.895 79.2013C125.146 78.916 126.448 78.916 127.699 79.2013Z" fill="#263238"/>
<path d="M128.84 82.9932C128.376 83.4267 127.859 83.8019 127.3 84.1102C126.752 84.4303 126.164 84.6806 125.551 84.855C126.013 84.4192 126.53 84.0437 127.09 83.7379C127.638 83.4163 128.226 83.1659 128.84 82.9932Z" fill="#263238"/>
<path d="M131.746 85.728C131.374 86.9325 130.723 88.0368 129.844 88.9551C130.022 88.3544 130.279 87.7789 130.609 87.2431C130.921 86.6929 131.303 86.1838 131.746 85.728Z" fill="#263238"/>
<path d="M135.665 86.6738C135.818 87.283 135.891 87.9085 135.884 88.5356C135.893 89.1629 135.82 89.7887 135.665 90.3974C135.508 89.789 135.435 89.163 135.446 88.5356C135.439 87.9085 135.513 87.283 135.665 86.6738Z" fill="#263238"/>
<path d="M139.539 85.5999C139.984 86.0518 140.368 86.5582 140.681 87.1064C141.009 87.6423 141.265 88.2178 141.441 88.8184C140.562 87.9001 139.911 86.7958 139.539 85.5913V85.5999Z" fill="#263238"/>
<path d="M142.332 82.7319C142.946 82.9047 143.534 83.1551 144.081 83.4766C144.642 83.7825 145.159 84.1579 145.621 84.5937C145.007 84.4209 144.419 84.1706 143.871 83.849C143.311 83.5432 142.794 83.1677 142.332 82.7319Z" fill="#263238"/>
<path d="M143.297 78.8971C144.55 78.6118 145.853 78.6118 147.106 78.8971C145.853 79.1823 144.55 79.1823 143.297 78.8971Z" fill="#263238"/>
<path d="M142.181 75.105C142.644 74.6718 143.161 74.2979 143.72 73.9922C144.267 73.6675 144.855 73.4156 145.469 73.2432C144.531 74.1035 143.403 74.7406 142.172 75.105H142.181Z" fill="#263238"/>
<path d="M139.27 72.3704C139.45 71.771 139.705 71.1959 140.03 70.6584C140.343 70.1101 140.727 69.6037 141.172 69.1519C140.995 69.7525 140.74 70.328 140.411 70.8639C140.098 71.4121 139.715 71.9185 139.27 72.3704Z" fill="#263238"/>
<path d="M251.849 184.917H118.318L99.3555 81.8633H232.891L251.849 184.917Z" fill="#88B0ED"/>
<path d="M145.628 144.86C148.693 144.86 151.178 142.429 151.178 139.429C151.178 136.429 148.693 133.998 145.628 133.998C142.563 133.998 140.078 136.429 140.078 139.429C140.078 142.429 142.563 144.86 145.628 144.86Z" fill="#263238"/>
<path d="M189.503 144.86C192.568 144.86 195.053 142.429 195.053 139.429C195.053 136.429 192.568 133.998 189.503 133.998C186.438 133.998 183.953 136.429 183.953 139.429C183.953 142.429 186.438 144.86 189.503 144.86Z" fill="#263238"/>
<path d="M175.538 145.729L175.232 145.16C175.205 145.109 172.336 139.921 166.568 139.921C161.32 139.921 160.008 144.805 159.973 145.014L159.816 145.635L158.543 145.335L158.696 144.711C158.696 144.651 160.262 138.637 166.568 138.637C173.128 138.637 176.264 144.321 176.395 144.565L176.701 145.13L175.538 145.729Z" fill="#263238"/>
<path d="M243.033 139.015L242.941 138.587C243.226 138.527 243.506 138.462 243.785 138.39L243.895 138.818C243.597 138.89 243.322 138.955 243.033 139.015Z" fill="#263238"/>
<path d="M245.589 138.325L245.449 137.923C245.996 137.739 246.543 137.537 247.072 137.319L247.242 137.713C246.704 137.936 246.149 138.141 245.589 138.325ZM248.847 136.96L248.651 136.583C249.162 136.322 249.674 136.039 250.159 135.727L250.387 136.091C249.888 136.429 249.368 136.716 248.847 136.96ZM251.856 135.149L251.598 134.803C252.07 134.464 252.525 134.109 252.954 133.745L253.243 134.066C252.783 134.456 252.346 134.82 251.852 135.166L251.856 135.149ZM254.524 132.872L254.205 132.577C254.607 132.149 254.988 131.721 255.337 131.293L255.683 131.554C255.32 132.025 254.931 132.466 254.533 132.889L254.524 132.872ZM256.689 130.133L256.317 129.906C256.619 129.428 256.888 128.931 257.122 128.417L257.524 128.592C257.277 129.128 256.996 129.648 256.684 130.15L256.689 130.133ZM258.136 126.957L257.699 126.838C257.859 126.301 257.977 125.753 258.053 125.198L258.491 125.254C258.418 125.836 258.298 126.411 258.132 126.974L258.136 126.957ZM258.622 123.533H258.184V123.409C258.184 122.891 258.154 122.365 258.101 121.847L258.539 121.804C258.596 122.337 258.625 122.873 258.626 123.409L258.622 123.533ZM257.835 120.182C257.717 119.63 257.571 119.085 257.397 118.547L257.835 118.419C258.014 118.975 258.167 119.54 258.272 120.092L257.835 120.182ZM256.798 116.959C256.588 116.454 256.361 115.936 256.081 115.414L256.474 115.222C256.741 115.752 256.986 116.283 257.2 116.797L256.798 116.959ZM255.267 113.908C254.996 113.441 254.699 112.949 254.393 112.444L254.764 112.217C255.084 112.726 255.386 113.223 255.639 113.698L255.267 113.908ZM253.439 111.002C253.12 110.531 252.796 110.056 252.464 109.581L252.827 109.341C253.159 109.816 253.483 110.291 253.802 110.77L253.439 111.002ZM251.471 108.168C251.143 107.697 250.811 107.222 250.487 106.751L250.85 106.512C251.174 106.983 251.502 107.458 251.83 107.924L251.471 108.168ZM249.516 105.318C249.197 104.838 248.887 104.35 248.581 103.862L248.952 103.64C249.258 104.128 249.569 104.607 249.884 105.087L249.516 105.318ZM247.693 102.377C247.395 101.859 247.12 101.346 246.871 100.854L247.264 100.661C247.509 101.149 247.785 101.654 248.073 102.168L247.693 102.377ZM246.14 99.2957C245.908 98.7607 245.703 98.2171 245.511 97.6864L245.948 97.5495C246.132 98.0673 246.337 98.6023 246.564 99.1288L246.14 99.2957ZM245.003 96.0301C244.859 95.4737 244.732 94.9044 244.636 94.3181L245.073 94.2496C245.169 94.7974 245.287 95.3538 245.432 95.9017L245.003 96.0301ZM244.417 92.6061C244.373 92.0796 244.352 91.5489 244.352 91.0182V90.8769H244.789V91.0139C244.789 91.5318 244.789 92.0539 244.855 92.5675L244.417 92.6061ZM244.855 89.1821L244.417 89.1393C244.417 89.0237 244.439 88.9039 244.452 88.7797C244.505 88.3218 244.57 87.8638 244.649 87.4273L245.086 87.5C245.012 87.928 244.946 88.3774 244.894 88.8268C244.911 88.9595 244.911 89.0751 244.876 89.1949L244.855 89.1821ZM245.462 85.8522L245.025 85.7367C245.187 85.1717 245.375 84.6196 245.585 84.0931L245.992 84.2472C245.793 84.7772 245.623 85.3172 245.484 85.8651L245.462 85.8522ZM267.255 83.357C267.01 83.357 266.756 83.3227 266.507 83.2885C266.166 83.2414 265.825 83.1858 265.488 83.1216L265.575 82.6936C265.899 82.7535 266.236 82.8091 266.568 82.8562C266.804 82.8862 267.045 82.9076 267.277 82.9204L267.255 83.357ZM269.052 83.2243L268.96 82.7963C269.509 82.6854 270.035 82.4858 270.517 82.2057L270.745 82.5695C270.23 82.8814 269.665 83.1071 269.074 83.2371L269.052 83.2243ZM246.722 82.715L246.333 82.5138C246.611 82.0034 246.919 81.5089 247.255 81.0329L247.614 81.2769C247.294 81.743 247.004 82.2275 246.744 82.7278L246.722 82.715ZM263.778 82.6893C263.213 82.514 262.659 82.3097 262.116 82.0773L262.295 81.6835C262.821 81.9121 263.36 82.1108 263.909 82.2784L263.778 82.6893ZM272.087 81.3539L271.724 81.1143C272.036 80.6721 272.22 80.1562 272.258 79.6205L272.695 79.6505C272.658 80.2645 272.453 80.8574 272.1 81.3668L272.087 81.3539ZM260.542 81.2897C260.03 80.9986 259.535 80.68 259.059 80.3353L259.317 79.9929C259.78 80.3272 260.262 80.6358 260.76 80.9174L260.542 81.2897ZM248.69 79.9544L248.366 79.6676C248.762 79.2366 249.184 78.8293 249.63 78.4478L249.919 78.7688C249.49 79.1445 249.084 79.5447 248.703 79.9672L248.69 79.9544ZM257.695 79.2311C257.259 78.8384 256.846 78.4226 256.457 77.9856L256.785 77.7031C257.163 78.1276 257.565 78.5319 257.988 78.9143L257.695 79.2311ZM271.93 78.0712C271.679 77.5821 271.333 77.1458 270.911 76.7872L271.199 76.4662C271.664 76.8596 272.046 77.3379 272.323 77.8743L271.93 78.0712ZM251.279 77.7331L251.03 77.3821C251.519 77.0552 252.026 76.7538 252.547 76.479L252.753 76.8557C252.25 77.1274 251.763 77.4245 251.292 77.7459L251.279 77.7331ZM255.364 76.6203C255.197 76.3891 255.036 76.1537 254.883 75.9098L254.314 76.1281L254.148 75.7343L254.651 75.5374C254.572 75.409 254.493 75.2806 254.419 75.1522L254.799 74.9425C254.887 75.0923 254.974 75.2421 255.066 75.3705C255.311 75.2849 255.56 75.2036 255.814 75.1265L255.941 75.5545C255.727 75.6187 255.504 75.6872 255.302 75.76C255.438 75.9697 255.578 76.188 255.74 76.372L255.364 76.6203ZM269.503 75.8841C269.079 75.6777 268.641 75.5032 268.191 75.3619L267.902 75.2721L268.029 74.8441L268.326 74.9382C268.795 75.0844 269.251 75.2661 269.691 75.4818L269.503 75.8841ZM257.616 75.118L257.524 74.69C258.088 74.5659 258.674 74.4631 259.273 74.3818L259.339 74.8098C258.762 74.8997 258.189 75.0067 257.629 75.1308L257.616 75.118ZM266.231 74.8869C265.685 74.7927 265.107 74.7199 264.517 74.6686L264.552 74.2406C265.16 74.2919 265.75 74.3647 266.301 74.4631L266.231 74.8869ZM261.049 74.6386L261.018 74.2106C261.539 74.1807 262.059 74.1635 262.575 74.1635H262.79V74.5915H262.58C262.085 74.6044 261.569 74.6172 261.062 74.6515L261.049 74.6386ZM253.658 73.6157C253.422 73.0935 253.221 72.55 253.024 71.9979L253.461 71.8652C253.645 72.4045 253.85 72.9352 254.078 73.4445L253.658 73.6157ZM252.552 70.3287C252.42 69.7765 252.311 69.203 252.228 68.6167L252.665 68.5567C252.748 69.1217 252.853 69.6824 252.98 70.2259L252.552 70.3287ZM252.062 66.9047C252.04 66.5195 252.027 66.1257 252.027 65.7319C252.027 65.5479 252.027 65.3596 252.027 65.1755H252.464C252.464 65.3596 252.464 65.5393 252.464 65.7234C252.464 66.1086 252.464 66.4981 252.495 66.8704L252.062 66.9047ZM252.582 63.4807L252.145 63.4379C252.206 62.8729 252.289 62.2951 252.39 61.7259L252.827 61.7986C252.709 62.3679 252.626 62.9157 252.569 63.4892L252.582 63.4807ZM253.181 60.138L252.744 60.0353C252.884 59.4831 253.046 58.9267 253.225 58.3703L253.662 58.503C253.466 59.0637 253.304 59.6073 253.168 60.1465L253.181 60.138ZM254.231 56.898L253.824 56.7439C254.039 56.2089 254.262 55.6739 254.528 55.1561L254.922 55.3444C254.66 55.858 254.428 56.3801 254.218 56.9237L254.231 56.898ZM255.735 53.8464L255.355 53.6281C255.652 53.1359 255.972 52.6437 256.304 52.1729L256.663 52.4169C256.321 52.8877 256.011 53.367 255.722 53.8549L255.735 53.8464ZM257.708 51.0601L257.367 50.7905C257.734 50.3625 258.128 49.9088 258.534 49.5065L258.849 49.8018C258.438 50.2041 258.053 50.6321 257.695 51.0687L257.708 51.0601ZM260.087 48.5948L259.794 48.2781C260.231 47.8972 260.668 47.5205 261.136 47.1567L261.408 47.4949C260.94 47.8587 260.494 48.231 260.074 48.6034L260.087 48.5948ZM262.803 46.4805L262.553 46.1253C263.03 45.8043 263.529 45.4875 264.036 45.1879L264.259 45.5517C263.752 45.8556 263.279 46.1681 262.79 46.4891L262.803 46.4805ZM265.772 44.7129L265.567 44.3362C266.083 44.0666 266.616 43.8098 267.15 43.5701L267.333 43.9596C266.778 44.2035 266.266 44.4603 265.759 44.7214L265.772 44.7129ZM268.934 43.2919L268.772 42.8896C269.323 42.6799 269.879 42.4616 270.43 42.3032L270.57 42.7312C270.014 42.8939 269.463 43.0907 268.921 43.3005L268.934 43.2919Z" fill="#263238"/>
<path d="M272.309 42.2094L272.199 41.7814C272.742 41.6444 273.074 41.5845 273.074 41.5845L273.153 42.0125C273.153 42.0125 272.838 42.0767 272.309 42.2094Z" fill="#263238"/>
<path d="M280.035 39.445C278.92 36.0638 271.45 37.2793 272.906 41.7005C274.363 46.1217 281.15 42.8304 280.035 39.445Z" fill="#263238"/>
<path d="M268.845 38.0921C268.902 36.607 271.01 35.4642 273.992 35.9906C276.975 36.5171 279.778 38.4859 279.778 38.4859C279.778 38.4859 276.835 40.2321 273.822 40.5531C270.809 40.8741 268.788 39.573 268.845 38.0921Z" fill="#EBEBEB"/>
<path d="M279.775 38.4774C278.227 38.4774 276.683 38.4346 275.14 38.3875C273.596 38.3404 272.048 38.2634 270.504 38.1436C272.052 38.1436 273.6 38.1821 275.144 38.2292C276.688 38.2762 278.236 38.3533 279.775 38.4774Z" fill="#263238"/>
<path d="M271.84 36.7695C272.719 37.181 273.548 37.6878 274.311 38.2804C273.871 38.0784 273.444 37.8497 273.034 37.5956C272.62 37.3432 272.221 37.0674 271.84 36.7695Z" fill="#263238"/>
<path d="M275.894 38.3359C275.103 38.9634 274.246 39.5058 273.336 39.9538C274.131 39.3255 274.993 38.7831 275.907 38.3359H275.894Z" fill="#263238"/>
<path d="M276.344 37.501C276.785 37.7084 277.171 38.0131 277.472 38.3912C277.251 38.2893 277.044 38.1614 276.855 38.0103C276.666 37.8602 276.494 37.6893 276.344 37.501Z" fill="#263238"/>
<path d="M271.691 46.887C272.623 48.0597 275.015 47.7772 277.119 45.6458C279.222 43.5143 280.337 40.3086 280.337 40.3086C280.337 40.3086 276.891 40.5654 274.263 42.0206C271.634 43.4758 270.755 45.71 271.691 46.887Z" fill="#EBEBEB"/>
<path d="M280.337 40.3086C279.077 41.1646 277.853 42.1148 276.624 43.035C275.395 43.9552 274.192 44.9053 273.016 45.8854C274.275 45.0294 275.5 44.0836 276.724 43.1634C277.949 42.2432 279.143 41.293 280.337 40.3086Z" fill="#263238"/>
<path d="M274.902 46.2239C275.136 45.8081 275.345 45.3794 275.528 44.9399C275.714 44.4991 275.872 44.0474 276 43.5874C275.766 44.0028 275.557 44.4316 275.375 44.8714C275.19 45.3128 275.033 45.7644 274.902 46.2239Z" fill="#263238"/>
<path d="M277.272 42.6457C276.249 42.5921 275.223 42.6452 274.211 42.804C274.721 42.834 275.232 42.834 275.742 42.804C276.254 42.7795 276.766 42.7267 277.272 42.6457Z" fill="#263238"/>
<path d="M278.117 43.0697C278.234 42.8583 278.325 42.6342 278.388 42.402C278.453 42.1715 278.491 41.9346 278.502 41.6958C278.27 42.1195 278.138 42.5892 278.117 43.0697Z" fill="#263238"/>
<path d="M280.038 39.4447C279.791 39.5232 279.525 39.5282 279.275 39.459C279.026 39.3899 278.802 39.2497 278.634 39.0563C278.465 38.8629 278.359 38.6249 278.329 38.3725C278.299 38.1201 278.346 37.8646 278.464 37.6383C278.583 37.4121 278.767 37.2254 278.994 37.1017C279.221 36.978 279.48 36.9231 279.739 36.9437C279.998 36.9643 280.244 37.0597 280.448 37.2177C280.651 37.3756 280.802 37.5891 280.882 37.8311C280.988 38.1546 280.958 38.5061 280.8 38.8086C280.642 39.111 280.368 39.3397 280.038 39.4447Z" fill="#455A64"/>
<path d="M280.841 41.8884C280.594 41.9666 280.329 41.9714 280.079 41.9022C279.83 41.833 279.607 41.6929 279.438 41.4997C279.27 41.3065 279.164 41.0687 279.134 40.8165C279.104 40.5644 279.151 40.3091 279.269 40.0829C279.386 39.8568 279.57 39.67 279.797 39.5461C280.023 39.4222 280.282 39.3668 280.541 39.3868C280.799 39.4069 281.046 39.5016 281.25 39.6589C281.453 39.8162 281.605 40.0291 281.685 40.2706C281.738 40.4311 281.759 40.6002 281.745 40.7684C281.731 40.9366 281.684 41.1005 281.606 41.2507C281.527 41.4009 281.419 41.5346 281.288 41.644C281.157 41.7535 281.005 41.8365 280.841 41.8884Z" fill="#455A64"/>
<path d="M137.461 40.7968C137.251 42.7626 136.488 44.6328 135.255 46.1987C134.023 47.7645 132.37 48.9644 130.481 49.6645C128.593 50.3645 126.542 50.5372 124.559 50.1631C122.576 49.7891 120.738 48.8831 119.25 47.5463L113.797 48.3296L116.526 43.7157C115.902 42.2145 115.636 40.5938 115.747 38.9767C115.859 37.3597 116.346 35.7888 117.171 34.3835C117.996 32.9781 119.137 31.7753 120.508 30.8663C121.879 29.9572 123.444 29.366 125.084 29.1374C126.723 28.9088 128.394 29.0489 129.97 29.547C131.546 30.0451 132.985 30.8882 134.179 32.0121C135.372 33.1361 136.287 34.5114 136.856 36.0335C137.425 37.5557 137.632 39.1847 137.461 40.7968Z" fill="white"/>
<path d="M137.459 40.797C137.254 42.7618 136.497 44.6328 135.273 46.2026C134.674 46.9966 133.953 47.6941 133.134 48.2698C132.333 48.8672 131.45 49.35 130.51 49.7036C129.57 50.066 128.582 50.2966 127.576 50.3884C127.072 50.4326 126.567 50.4426 126.062 50.4184C125.556 50.4057 125.052 50.3541 124.554 50.2643C122.544 49.9024 120.676 48.9998 119.161 47.6578L119.288 47.6963L113.843 48.5138L113.445 48.5737L113.646 48.2313L116.358 43.6089V43.793C115.718 42.264 115.446 40.6115 115.563 38.9632C115.68 37.3149 116.182 35.715 117.031 34.2871C117.88 32.8636 119.046 31.6463 120.443 30.7261C121.837 29.8181 123.424 29.231 125.083 29.0086C126.743 28.7862 128.432 28.9344 130.025 29.4421C131.6 29.9667 133.036 30.8295 134.227 31.9673C135.416 33.1023 136.325 34.4872 136.885 36.0171C137.445 37.547 137.641 39.1816 137.459 40.797ZM137.459 40.797C137.636 39.1896 137.433 37.564 136.866 36.0456C136.299 34.5273 135.382 33.1568 134.188 32.04C132.994 30.9232 131.553 30.09 129.977 29.6047C128.401 29.1194 126.733 28.9949 125.1 29.241C123.484 29.4751 121.944 30.0696 120.6 30.9786C119.267 31.8948 118.154 33.0836 117.338 34.4625C116.534 35.8446 116.06 37.3868 115.951 38.9737C115.845 40.5712 116.108 42.1717 116.721 43.656L116.76 43.7502L116.708 43.84L113.961 48.4453L113.769 48.1628L119.227 47.4138H119.301L119.354 47.4609C120.813 48.7899 122.621 49.6953 124.575 50.076C125.063 50.1731 125.557 50.2318 126.054 50.2515C126.55 50.2857 127.048 50.2857 127.545 50.2515C128.541 50.173 129.521 49.9613 130.458 49.6223C131.397 49.2877 132.281 48.8205 133.082 48.2356C133.897 47.6645 134.619 46.9762 135.225 46.194C136.465 44.6318 137.239 42.7636 137.459 40.797Z" fill="#263238"/>
<path d="M121.291 44.6616C121.282 44.5199 121.304 44.3781 121.354 44.2448C121.404 44.1116 121.481 43.9898 121.581 43.887C121.681 43.7843 121.802 43.7028 121.936 43.6475C122.069 43.5923 122.213 43.5645 122.358 43.5659C122.655 43.5659 122.94 43.6814 123.15 43.8869C123.36 44.0923 123.478 44.371 123.478 44.6616C123.478 44.9522 123.36 45.2309 123.15 45.4364C122.94 45.6419 122.655 45.7573 122.358 45.7573C122.213 45.7587 122.069 45.7309 121.936 45.6757C121.802 45.6205 121.681 45.5389 121.581 45.4362C121.481 45.3335 121.404 45.2117 121.354 45.0784C121.304 44.9452 121.282 44.8033 121.291 44.6616ZM121.728 42.1321L121.475 33.6406H123.224L122.97 42.1321H121.728Z" fill="#88B0ED"/>
<path d="M125.447 44.6616C125.439 44.5203 125.46 44.3788 125.51 44.2458C125.559 44.1129 125.636 43.9913 125.736 43.8886C125.836 43.7859 125.956 43.7043 126.089 43.6488C126.222 43.5933 126.365 43.5651 126.51 43.5659C126.807 43.5659 127.091 43.6814 127.301 43.8869C127.511 44.0923 127.629 44.371 127.629 44.6616C127.629 44.9522 127.511 45.2309 127.301 45.4364C127.091 45.6419 126.807 45.7573 126.51 45.7573C126.365 45.7581 126.222 45.7299 126.089 45.6744C125.956 45.6189 125.836 45.5373 125.736 45.4346C125.636 45.332 125.559 45.2104 125.51 45.0774C125.46 44.9445 125.439 44.803 125.447 44.6616ZM125.884 42.1321L125.644 33.6406H127.393L127.14 42.1321H125.884Z" fill="#88B0ED"/>
<path d="M129.607 44.6616C129.599 44.5199 129.62 44.3781 129.67 44.2448C129.72 44.1116 129.798 43.9898 129.898 43.887C129.998 43.7843 130.118 43.7028 130.252 43.6475C130.386 43.5923 130.529 43.5645 130.674 43.5659C130.971 43.5659 131.256 43.6814 131.466 43.8869C131.676 44.0923 131.794 44.371 131.794 44.6616C131.794 44.9522 131.676 45.2309 131.466 45.4364C131.256 45.6419 130.971 45.7573 130.674 45.7573C130.529 45.7587 130.386 45.7309 130.252 45.6757C130.118 45.6205 129.998 45.5389 129.898 45.4362C129.798 45.3335 129.72 45.2117 129.67 45.0784C129.62 44.9452 129.599 44.8033 129.607 44.6616ZM130.045 42.1321L129.791 33.6406H131.54L131.291 42.1321H130.045Z" fill="#88B0ED"/>
</svg>
